<svg xmlns="http://www.w3.org/2000/svg" width="37.5" viewBox="0 0 37.5 37.5" height="37.5" version="1.0"><defs><clipPath id="a"><path d="M 0 0 L 37.007812 0 L 37.007812 37.007812 L 0 37.007812 Z M 0 0"/></clipPath><clipPath id="b"><path d="M 2 2.265625 L 35.945312 2.265625 L 35.945312 35.265625 L 2 35.265625 Z M 2 2.265625"/></clipPath></defs><g clip-path="url(#a)" fill="#FFF"><path d="M 0 0 L 37.5 0 L 37.5 45 L 0 45 Z M 0 0"/><path d="M 0 0 L 37.5 0 L 37.5 37.5 L 0 37.5 Z M 0 0"/><path d="M 0 0 L 37.5 0 L 37.5 37.5 L 0 37.5 Z M 0 0"/></g><g clip-path="url(#b)"><path fill="#C6421F" d="M 18.695312 2.265625 C 18.15625 2.265625 17.621094 2.292969 17.085938 2.34375 C 16.550781 2.398438 16.023438 2.476562 15.496094 2.582031 C 14.96875 2.6875 14.449219 2.816406 13.933594 2.972656 C 13.421875 3.128906 12.917969 3.3125 12.421875 3.519531 C 11.925781 3.726562 11.441406 3.953125 10.96875 4.210938 C 10.492188 4.464844 10.035156 4.738281 9.585938 5.039062 C 9.140625 5.339844 8.710938 5.660156 8.296875 6 C 7.878906 6.34375 7.484375 6.707031 7.101562 7.085938 C 6.722656 7.46875 6.363281 7.867188 6.023438 8.28125 C 5.683594 8.699219 5.363281 9.132812 5.066406 9.582031 C 4.765625 10.027344 4.492188 10.492188 4.238281 10.964844 C 3.984375 11.441406 3.753906 11.929688 3.550781 12.425781 C 3.34375 12.925781 3.164062 13.429688 3.007812 13.945312 C 2.851562 14.460938 2.722656 14.984375 2.617188 15.511719 C 2.511719 16.042969 2.433594 16.574219 2.382812 17.109375 C 2.328125 17.648438 2.300781 18.183594 2.300781 18.722656 C 2.300781 19.261719 2.328125 19.800781 2.382812 20.335938 C 2.433594 20.875 2.511719 21.40625 2.617188 21.933594 C 2.722656 22.464844 2.851562 22.988281 3.007812 23.503906 C 3.164062 24.019531 3.34375 24.523438 3.550781 25.023438 C 3.753906 25.519531 3.984375 26.007812 4.238281 26.484375 C 4.492188 26.957031 4.765625 27.421875 5.066406 27.867188 C 5.363281 28.316406 5.683594 28.75 6.023438 29.164062 C 6.363281 29.582031 6.722656 29.980469 7.101562 30.363281 C 7.484375 30.742188 7.878906 31.105469 8.296875 31.449219 C 8.710938 31.789062 9.140625 32.109375 9.585938 32.410156 C 10.035156 32.710938 10.492188 32.984375 10.96875 33.238281 C 11.441406 33.492188 11.925781 33.722656 12.421875 33.929688 C 12.917969 34.136719 13.421875 34.316406 13.933594 34.476562 C 14.449219 34.632812 14.96875 34.761719 15.496094 34.867188 C 16.023438 34.972656 16.550781 35.050781 17.085938 35.105469 C 17.621094 35.15625 18.15625 35.183594 18.695312 35.183594 C 19.230469 35.183594 19.765625 35.15625 20.300781 35.105469 C 20.835938 35.050781 21.363281 34.972656 21.890625 34.867188 C 22.417969 34.761719 22.9375 34.632812 23.453125 34.476562 C 23.964844 34.316406 24.46875 34.136719 24.964844 33.929688 C 25.460938 33.722656 25.945312 33.492188 26.421875 33.238281 C 26.894531 32.984375 27.355469 32.710938 27.800781 32.410156 C 28.246094 32.109375 28.675781 31.789062 29.09375 31.449219 C 29.507812 31.105469 29.90625 30.742188 30.285156 30.363281 C 30.664062 29.980469 31.023438 29.582031 31.363281 29.164062 C 31.703125 28.75 32.023438 28.316406 32.324219 27.867188 C 32.621094 27.421875 32.894531 26.957031 33.148438 26.484375 C 33.402344 26.007812 33.632812 25.519531 33.835938 25.023438 C 34.042969 24.523438 34.222656 24.019531 34.378906 23.503906 C 34.535156 22.988281 34.664062 22.464844 34.769531 21.933594 C 34.875 21.40625 34.953125 20.875 35.007812 20.335938 C 35.058594 19.800781 35.085938 19.261719 35.085938 18.722656 C 35.085938 18.183594 35.058594 17.648438 35.007812 17.109375 C 34.953125 16.574219 34.875 16.042969 34.769531 15.511719 C 34.664062 14.984375 34.535156 14.460938 34.378906 13.945312 C 34.222656 13.429688 34.042969 12.925781 33.835938 12.425781 C 33.632812 11.929688 33.402344 11.441406 33.148438 10.964844 C 32.894531 10.492188 32.621094 10.027344 32.324219 9.582031 C 32.023438 9.132812 31.703125 8.699219 31.363281 8.28125 C 31.023438 7.867188 30.664062 7.46875 30.285156 7.085938 C 29.90625 6.707031 29.507812 6.34375 29.09375 6 C 28.675781 5.660156 28.246094 5.339844 27.800781 5.039062 C 27.355469 4.738281 26.894531 4.464844 26.421875 4.210938 C 25.945312 3.953125 25.460938 3.726562 24.964844 3.519531 C 24.46875 3.3125 23.964844 3.128906 23.453125 2.972656 C 22.9375 2.816406 22.417969 2.6875 21.890625 2.582031 C 21.363281 2.476562 20.835938 2.398438 20.300781 2.34375 C 19.765625 2.292969 19.230469 2.265625 18.695312 2.265625 Z M 18.695312 2.265625"/></g><path fill="#FFF" d="M 23.09375 18.722656 L 20.332031 18.722656 L 20.332031 28.601562 L 16.234375 28.601562 L 16.234375 18.722656 L 13.777344 18.722656 L 13.777344 15.433594 L 16.234375 15.433594 L 16.234375 13.449219 C 16.238281 10.5625 17.429688 8.847656 20.816406 8.847656 L 23.609375 8.847656 L 23.609375 12.140625 L 21.738281 12.140625 C 20.417969 12.140625 20.332031 12.632812 20.332031 13.558594 L 20.332031 15.433594 L 23.609375 15.433594 Z M 23.09375 18.722656"/></svg>