<svg xmlns="http://www.w3.org/2000/svg" width="37.5" viewBox="0 0 37.5 37.5" height="37.5" version="1.0"><defs><clipPath id="a"><path d="M 0 0 L 37.007812 0 L 37.007812 37.007812 L 0 37.007812 Z M 0 0"/></clipPath><clipPath id="b"><path d="M 1.875 1.875 L 35.625 1.875 L 35.625 35.625 L 1.875 35.625 Z M 1.875 1.875"/></clipPath></defs><g clip-path="url(#a)" fill="#FFF"><path d="M 0 0 L 37.5 0 L 37.5 45 L 0 45 Z M 0 0"/><path d="M 0 0 L 37.5 0 L 37.5 37.5 L 0 37.5 Z M 0 0"/><path d="M 0 0 L 37.5 0 L 37.5 37.5 L 0 37.5 Z M 0 0"/></g><g clip-path="url(#b)"><path fill="#C6421F" d="M 11.25 1.875 C 6.082031 1.875 1.875 6.082031 1.875 11.25 L 1.875 26.25 C 1.875 31.417969 6.082031 35.625 11.25 35.625 L 26.25 35.625 C 31.417969 35.625 35.625 31.417969 35.625 26.25 L 35.625 11.25 C 35.625 6.082031 31.417969 1.875 26.25 1.875 Z M 11.25 5.625 L 26.25 5.625 C 29.351562 5.625 31.875 8.148438 31.875 11.25 L 31.875 26.25 C 31.875 29.351562 29.351562 31.875 26.25 31.875 L 11.25 31.875 C 8.148438 31.875 5.625 29.351562 5.625 26.25 L 5.625 11.25 C 5.625 8.148438 8.148438 5.625 11.25 5.625 Z M 28.125 7.5 C 27.875 7.5 27.636719 7.546875 27.40625 7.644531 C 27.179688 7.738281 26.976562 7.875 26.800781 8.050781 C 26.625 8.226562 26.488281 8.429688 26.394531 8.65625 C 26.296875 8.886719 26.25 9.125 26.25 9.375 C 26.25 9.625 26.296875 9.863281 26.394531 10.09375 C 26.488281 10.320312 26.625 10.523438 26.800781 10.699219 C 26.976562 10.875 27.179688 11.011719 27.40625 11.105469 C 27.636719 11.203125 27.875 11.25 28.125 11.25 C 28.375 11.25 28.613281 11.203125 28.84375 11.105469 C 29.070312 11.011719 29.273438 10.875 29.449219 10.699219 C 29.625 10.523438 29.761719 10.320312 29.855469 10.09375 C 29.953125 9.863281 30 9.625 30 9.375 C 30 9.125 29.953125 8.886719 29.855469 8.65625 C 29.761719 8.429688 29.625 8.226562 29.449219 8.050781 C 29.273438 7.875 29.070312 7.738281 28.84375 7.644531 C 28.613281 7.546875 28.375 7.5 28.125 7.5 Z M 18.75 9.375 C 13.582031 9.375 9.375 13.582031 9.375 18.75 C 9.375 23.917969 13.582031 28.125 18.75 28.125 C 23.917969 28.125 28.125 23.917969 28.125 18.75 C 28.125 13.582031 23.917969 9.375 18.75 9.375 Z M 18.75 13.125 C 21.851562 13.125 24.375 15.648438 24.375 18.75 C 24.375 21.851562 21.851562 24.375 18.75 24.375 C 15.648438 24.375 13.125 21.851562 13.125 18.75 C 13.125 15.648438 15.648438 13.125 18.75 13.125 Z M 18.75 13.125"/></g></svg>