<svg xmlns="http://www.w3.org/2000/svg" width="37.5" viewBox="0 0 37.5 37.5" height="37.5" version="1.0"><defs><clipPath id="a"><path d="M 0 0 L 37.007812 0 L 37.007812 37.007812 L 0 37.007812 Z M 0 0"/></clipPath><clipPath id="b"><path d="M 1.980469 1.980469 L 35.730469 1.980469 L 35.730469 35.730469 L 1.980469 35.730469 Z M 1.980469 1.980469"/></clipPath></defs><g clip-path="url(#a)" fill="#FFF"><path d="M 0 0 L 37.5 0 L 37.5 45 L 0 45 Z M 0 0"/><path d="M 0 0 L 37.5 0 L 37.5 37.5 L 0 37.5 Z M 0 0"/><path d="M 0 0 L 37.5 0 L 37.5 37.5 L 0 37.5 Z M 0 0"/></g><g clip-path="url(#b)"><path fill="#C6421F" d="M 6.542969 1.980469 C 4.039062 1.980469 1.980469 4.039062 1.980469 6.542969 L 1.980469 31.175781 C 1.980469 33.671875 4.039062 35.730469 6.542969 35.730469 L 31.175781 35.730469 C 33.671875 35.730469 35.730469 33.671875 35.730469 31.175781 L 35.730469 6.542969 C 35.730469 4.039062 33.671875 1.980469 31.175781 1.980469 Z M 6.542969 4.574219 L 31.175781 4.574219 C 32.273438 4.574219 33.132812 5.4375 33.132812 6.542969 L 33.132812 31.175781 C 33.132812 32.273438 32.273438 33.132812 31.175781 33.132812 L 6.542969 33.132812 C 5.4375 33.132812 4.574219 32.273438 4.574219 31.175781 L 4.574219 6.542969 C 4.574219 5.4375 5.4375 4.574219 6.542969 4.574219 Z M 9.769531 7.171875 C 8.339844 7.171875 7.171875 8.339844 7.171875 9.769531 C 7.171875 11.199219 8.339844 12.363281 9.769531 12.363281 C 11.199219 12.363281 12.363281 11.199219 12.363281 9.769531 C 12.363281 8.339844 11.199219 7.171875 9.769531 7.171875 Z M 7.171875 14.960938 L 7.171875 30.539062 L 12.363281 30.539062 L 12.363281 14.960938 Z M 14.960938 14.960938 L 14.960938 30.539062 L 20.152344 30.539062 L 20.152344 23.582031 C 20.152344 21.421875 20.355469 19.484375 22.953125 19.484375 C 25.507812 19.484375 25.34375 21.804688 25.34375 23.722656 L 25.34375 30.539062 L 30.539062 30.539062 L 30.539062 22.851562 C 30.539062 18.386719 29.605469 14.960938 24.542969 14.960938 C 22.109375 14.960938 20.882812 15.933594 20.214844 17.230469 L 20.152344 17.230469 L 20.152344 14.960938 Z M 14.960938 14.960938"/></g></svg>