<svg xmlns="http://www.w3.org/2000/svg" width="37.5" viewBox="0 0 37.5 37.5" height="37.5" version="1.0"><defs><clipPath id="a"><path d="M 0 0 L 37.007812 0 L 37.007812 37.007812 L 0 37.007812 Z M 0 0"/></clipPath><clipPath id="b"><path d="M 2.183594 2.890625 L 22 2.890625 L 22 34.390625 L 2.183594 34.390625 Z M 2.183594 2.890625"/></clipPath></defs><g clip-path="url(#a)" fill="#FFF"><path d="M 0 0 L 37.5 0 L 37.5 45 L 0 45 Z M 0 0"/><path d="M 0 0 L 37.5 0 L 37.5 37.5 L 0 37.5 Z M 0 0"/><path d="M 0 0 L 37.5 0 L 37.5 37.5 L 0 37.5 Z M 0 0"/></g><g clip-path="url(#b)"><path fill="#C6421F" d="M 20.71875 34.421875 C 20.671875 34.421875 20.625 34.421875 20.582031 34.414062 L 3.296875 32.046875 C 2.792969 31.980469 2.417969 31.550781 2.417969 31.042969 L 2.417969 6.707031 C 2.417969 6.210938 2.78125 5.785156 3.277344 5.707031 L 20.5625 3.003906 C 20.855469 2.953125 21.152344 3.039062 21.378906 3.234375 C 21.605469 3.425781 21.738281 3.707031 21.738281 4.003906 L 21.738281 33.410156 C 21.738281 33.703125 21.609375 33.980469 21.390625 34.171875 C 21.199219 34.335938 20.964844 34.421875 20.71875 34.421875 Z M 4.449219 30.160156 L 19.703125 32.246094 L 19.703125 5.191406 L 4.449219 7.578125 Z M 4.449219 30.160156"/></g><path fill="#C6421F" d="M 11.90625 24.960938 C 9.289062 24.960938 7.160156 22.230469 7.160156 18.875 C 7.160156 15.523438 9.289062 12.792969 11.90625 12.792969 C 14.523438 12.792969 16.652344 15.523438 16.652344 18.875 C 16.652344 22.230469 14.523438 24.960938 11.90625 24.960938 Z M 11.90625 14.820312 C 10.4375 14.820312 9.195312 16.679688 9.195312 18.875 C 9.195312 21.074219 10.4375 22.933594 11.90625 22.933594 C 13.375 22.933594 14.617188 21.074219 14.617188 18.875 C 14.617188 16.679688 13.375 14.820312 11.90625 14.820312 Z M 11.90625 14.820312"/><path fill="#C6421F" d="M 32.582031 29.351562 L 20.71875 29.351562 C 20.15625 29.351562 19.703125 28.898438 19.703125 28.339844 L 19.703125 9.414062 C 19.703125 8.851562 20.15625 8.398438 20.71875 8.398438 L 32.582031 8.398438 C 33.164062 8.398438 33.722656 8.609375 34.152344 8.992188 C 34.65625 9.425781 34.953125 10.074219 34.953125 10.765625 L 34.953125 26.988281 C 34.953125 28.292969 33.890625 29.351562 32.582031 29.351562 Z M 21.734375 27.324219 L 32.582031 27.324219 C 32.765625 27.324219 32.921875 27.171875 32.921875 26.988281 L 32.921875 10.765625 C 32.921875 10.667969 32.882812 10.578125 32.8125 10.519531 C 32.738281 10.453125 32.667969 10.425781 32.582031 10.425781 L 21.734375 10.425781 Z M 21.734375 27.324219"/><path fill="#C6421F" d="M 24.921875 18.59375 C 24.6875 18.59375 24.449219 18.507812 24.257812 18.347656 L 20.054688 14.738281 C 19.628906 14.371094 19.582031 13.730469 19.949219 13.304688 C 20.316406 12.878906 20.957031 12.835938 21.382812 13.199219 L 24.902344 16.222656 L 32.789062 9.003906 C 33.203125 8.628906 33.84375 8.648438 34.226562 9.066406 C 34.605469 9.476562 34.578125 10.117188 34.164062 10.5 L 25.609375 18.324219 C 25.414062 18.503906 25.167969 18.59375 24.921875 18.59375 Z M 24.921875 18.59375"/></svg>